<?xml version="1.0" standalone="no"?>
<!DOCTYPE svg PUBLIC "-//W3C//DTD SVG 20010904//EN"
 "http://www.w3.org/TR/2001/REC-SVG-20010904/DTD/svg10.dtd">
<svg version="1.0" xmlns="http://www.w3.org/2000/svg"
 width="1024.000000pt" height="1024.000000pt" viewBox="0 0 1024.000000 1024.000000"
 preserveAspectRatio="xMidYMid meet">
<metadata>
Created by potrace 1.14, written by Peter Selinger 2001-2017
</metadata>
<g transform="translate(0.000000,1024.000000) scale(0.100000,-0.100000)"
fill="#000000" stroke="none">
<path d="M5485 7227 c-22 -8 -69 -29 -105 -47 -101 -52 -123 -54 -192 -19
-126 64 -202 58 -364 -25 l-100 -52 -63 32 c-128 66 -280 65 -414 -2 -78 -40
-58 -40 -227 0 -91 21 -248 20 -335 -3 -94 -24 -148 -49 -238 -109 l-75 -51
-63 20 c-37 11 -95 20 -135 20 -99 1 -155 -29 -260 -137 l-81 -83 -74 15
c-192 41 -346 -23 -460 -192 -31 -47 -58 -75 -72 -78 -213 -40 -274 -64 -374
-145 -66 -54 -91 -97 -106 -185 l-11 -64 -43 -7 c-24 -3 -79 -24 -122 -46
-156 -78 -224 -200 -176 -316 11 -26 13 -44 6 -67 -5 -17 -15 -71 -21 -121
-13 -105 -9 -121 64 -289 57 -128 99 -203 166 -290 l49 -64 -63 -125 c-70
-137 -92 -214 -102 -353 -3 -49 -15 -120 -26 -159 -17 -57 -19 -87 -15 -165 8
-126 27 -193 92 -325 63 -127 123 -209 232 -322 81 -82 224 -203 241 -203 6 0
12 -4 14 -8 7 -17 69 -53 79 -46 8 5 9 3 5 -5 -5 -8 0 -14 13 -18 12 -3 21
-10 21 -15 0 -6 7 -7 16 -4 8 3 12 2 9 -4 -6 -9 41 -35 58 -32 4 1 7 -2 7 -7
0 -15 59 -41 78 -35 13 5 14 4 3 -4 -10 -7 -6 -13 18 -25 18 -9 37 -15 44 -13
7 1 9 1 4 -1 -11 -7 2 -23 20 -23 8 0 28 -9 44 -21 17 -12 39 -19 49 -16 12 3
20 0 20 -8 0 -9 13 -11 48 -9 33 3 41 2 27 -5 -11 -5 -24 -6 -29 -3 -5 3 -6 0
-3 -6 4 -5 26 -8 50 -6 23 2 34 1 25 -2 -32 -10 -19 -20 18 -16 26 3 35 1 30
-7 -4 -6 -12 -9 -17 -6 -5 4 -9 2 -9 -4 0 -6 17 -9 43 -7 23 2 34 2 25 -1 -10
-2 -18 -9 -18 -14 0 -8 28 -6 68 7 6 2 12 -1 12 -6 0 -10 -13 -14 -40 -11 -12
1 -12 -1 2 -9 9 -5 27 -8 40 -6 13 3 31 5 41 5 9 1 17 6 17 12 0 5 -4 8 -8 5
-4 -2 -14 -1 -22 5 -10 6 -1 8 30 8 25 -1 37 -3 28 -6 -10 -2 -15 -10 -11 -19
4 -10 -2 -14 -20 -14 -14 0 -28 -4 -31 -8 -3 -5 18 -8 47 -6 29 1 40 0 25 -2
-16 -3 -28 -10 -28 -15 0 -11 43 -12 56 -1 5 5 23 5 39 1 l30 -8 -32 3 c-18 1
-33 -1 -33 -5 0 -15 15 -17 63 -9 26 4 47 3 47 -2 0 -4 -11 -8 -25 -8 -14 0
-25 -4 -25 -10 0 -5 13 -10 28 -10 16 0 32 -3 36 -7 18 -19 86 -33 141 -28 39
2 48 1 25 -3 -52 -11 -23 -20 35 -12 28 4 44 8 38 9 -21 2 -15 21 7 21 11 0
20 -5 20 -12 0 -6 3 -9 6 -5 10 10 -7 47 -22 47 -8 0 -12 -4 -9 -10 3 -5 1
-10 -5 -10 -6 0 -10 7 -8 16 2 11 15 17 41 19 21 1 33 -1 26 -6 -7 -4 12 -7
41 -7 35 -1 58 -7 71 -18 12 -11 19 -13 19 -5 0 7 4 10 10 6 5 -3 7 -12 4 -19
-7 -19 15 -31 29 -17 9 9 8 14 -3 21 -8 5 -10 10 -5 10 19 0 38 -18 31 -29 -5
-7 8 -11 41 -12 85 0 205 -13 240 -24 7 -2 15 0 18 5 4 6 14 10 23 9 14 0 14
-2 -3 -10 -17 -8 -16 -9 7 -6 15 2 25 0 22 -4 -3 -5 4 -9 15 -9 12 0 21 -4 21
-10 0 -5 12 -10 28 -11 l27 -1 -25 -8 c-16 -5 16 -8 86 -8 61 1 116 -2 122 -6
6 -3 13 -2 17 4 3 5 18 10 33 9 l27 -1 -25 -9 c-20 -6 -16 -8 22 -6 25 1 44
-2 40 -7 -3 -5 19 -7 54 -3 32 3 131 -1 219 -9 100 -10 325 -18 601 -21 446
-6 684 2 979 32 77 8 149 14 160 14 l20 0 -20 -10 c-16 -7 -12 -8 14 -4 18 3
46 5 62 5 15 0 35 7 43 16 12 11 28 14 63 10 34 -4 41 -3 23 3 -16 6 8 7 68 4
69 -3 92 -1 92 9 0 9 3 9 12 0 14 -14 32 -16 23 -2 -4 6 1 7 11 3 11 -4 15 -2
11 4 -4 7 10 13 37 17 103 16 136 26 81 26 -38 0 -29 6 20 13 22 4 34 4 28 1
-27 -12 -11 -22 17 -11 21 8 26 14 17 20 -8 6 -4 7 11 4 12 -3 22 -1 22 4 0 5
5 9 11 9 5 0 7 -5 4 -11 -8 -12 56 -4 84 11 10 5 22 6 26 2 10 -10 75 -9 75 2
0 4 -15 6 -34 4 -19 -2 -33 -1 -30 3 2 4 -4 10 -13 12 -10 3 10 2 45 -1 41 -3
71 -1 86 8 17 9 29 9 44 1 15 -8 21 -7 25 4 4 9 -2 15 -16 18 -12 2 -4 5 18 5
29 1 36 -1 25 -8 -12 -8 -11 -10 7 -10 16 0 21 -4 17 -15 -4 -10 0 -15 11 -15
9 0 14 4 11 8 -6 11 86 15 125 7 16 -4 27 -10 24 -15 -5 -9 53 5 63 15 3 3
-13 5 -36 5 -22 0 -44 5 -48 11 -5 9 1 10 20 5 14 -3 26 -2 26 3 0 5 -8 12
-17 14 -14 4 -12 5 5 6 13 1 22 -5 22 -13 0 -16 51 -28 64 -15 6 5 0 9 -16 9
-15 0 -30 5 -33 10 -4 6 -3 10 2 9 4 -1 16 -1 25 0 22 1 12 31 -11 31 -14 0
-14 -2 -1 -10 13 -8 12 -10 -2 -10 -10 0 -18 5 -18 11 0 16 -26 39 -47 40 -17
1 70 19 110 22 24 2 21 15 -5 20 -13 2 -4 5 19 6 23 0 44 5 48 11 9 15 124 5
138 -13 14 -18 42 -22 75 -12 24 8 29 20 10 29 -7 3 1 5 17 4 17 0 44 5 60 12
27 11 28 13 10 20 -11 4 -22 6 -25 4 -3 -1 -6 6 -6 17 0 10 4 19 8 19 4 0 8
-7 8 -15 0 -8 9 -15 20 -15 26 0 36 3 33 12 -2 4 4 5 12 2 8 -3 20 -2 27 2 9
6 6 10 -12 16 -24 7 -23 7 3 4 16 -2 43 3 60 12 28 14 29 16 11 24 -16 7 -15
8 5 4 31 -6 138 63 119 77 -9 6 -8 7 5 3 17 -6 57 12 57 26 0 3 -6 8 -12 11
-7 2 -4 3 7 1 22 -4 88 43 80 57 -4 5 2 6 12 2 16 -6 17 -5 3 12 -14 17 -13
18 7 13 22 -6 63 25 46 34 -4 3 -3 4 3 2 18 -4 117 104 108 117 -4 7 -3 9 3 6
16 -10 98 104 143 198 64 131 82 215 77 348 -6 125 -7 137 -18 137 -4 0 -6 8
-5 18 1 11 -5 16 -16 14 -14 -2 -18 4 -18 31 0 68 -31 214 -71 330 l-40 117
51 62 c59 74 124 200 145 283 17 69 20 201 4 242 -9 24 -7 30 13 45 112 86
131 115 132 198 0 71 -15 115 -64 180 -39 52 -40 55 -38 131 1 90 -14 122 -91
191 -51 45 -68 55 -193 111 -74 34 -77 37 -88 79 -45 177 -133 257 -314 284
-50 8 -114 14 -143 14 l-51 0 -12 52 c-30 142 -143 235 -308 254 -34 3 -105 1
-163 -6 -98 -12 -104 -12 -114 6 -22 41 -143 151 -190 174 -72 35 -174 39
-299 10 -64 -15 -116 -21 -156 -18 -64 5 -70 8 -196 111 -33 26 -93 64 -134
85 -68 33 -84 37 -175 40 -89 3 -107 1 -170 -23 -138 -52 -127 -51 -179 -16
-93 64 -170 93 -259 97 -52 3 -97 -1 -122 -9z m220 -61 c28 -13 75 -42 105
-65 68 -51 105 -53 197 -11 88 41 146 53 218 44 83 -9 148 -36 230 -94 39 -27
100 -68 136 -90 63 -39 68 -40 155 -40 49 0 130 7 179 15 176 30 235 2 305
-144 57 -116 109 -133 250 -81 96 36 144 37 229 9 94 -32 133 -74 165 -181 35
-112 42 -117 177 -116 123 1 200 -19 261 -65 54 -41 88 -106 88 -167 0 -61 26
-85 145 -135 180 -76 202 -108 144 -210 -40 -72 -36 -110 22 -207 24 -42 44
-88 47 -113 5 -50 -8 -61 -130 -118 -44 -20 -78 -42 -78 -50 0 -8 9 -40 20
-73 12 -32 21 -86 22 -118 1 -54 -2 -62 -27 -82 -15 -12 -46 -25 -68 -28 -23
-4 -60 -15 -84 -26 -47 -20 -52 -37 -28 -80 15 -26 19 -68 9 -94 -5 -13 -12
-13 -60 5 -65 25 -117 19 -181 -17 -39 -23 -65 -46 -46 -43 27 5 42 -2 36 -17
-4 -12 -8 -13 -13 -3 -6 8 -9 6 -12 -7 -4 -19 10 -54 26 -65 5 -4 1 -27 -10
-52 -18 -43 -20 -45 -69 -51 -27 -3 -72 -6 -100 -6 -120 0 -165 -33 -230 -165
-33 -68 -59 -105 -92 -134 -25 -23 -52 -41 -58 -41 -8 0 -11 -8 -8 -20 5 -18
0 -20 -38 -20 -70 1 -197 27 -215 44 -8 9 -12 16 -8 16 3 0 2 6 -3 13 -6 6
-16 28 -22 48 -11 34 -64 99 -82 99 -4 0 -19 -4 -33 -10 -43 -16 -54 -54 -53
-176 0 -61 -3 -116 -7 -122 -4 -7 -2 -12 6 -12 7 -1 2 -7 -12 -15 -22 -13 -23
-14 -5 -15 11 -1 -2 -8 -30 -17 -62 -19 -178 -13 -250 12 -27 9 -86 42 -131
72 -99 65 -138 74 -188 43 -20 -12 -36 -19 -36 -15 0 3 -24 -18 -52 -48 -61
-61 -149 -108 -261 -137 -81 -20 -199 -32 -191 -18 3 4 4 8 2 9 -2 0 -25 3
-52 5 -36 4 -46 3 -41 -7 9 -14 -57 22 -95 52 -20 15 -21 18 -5 13 11 -4 17
-4 14 0 -4 4 -16 8 -27 11 -11 2 -30 9 -42 15 -11 6 -25 8 -30 5 -5 -3 -12 0
-15 6 -4 5 -14 7 -24 3 -9 -4 -27 -6 -41 -6 l-25 1 25 -15 25 -15 -25 7 c-14
4 -30 7 -37 7 -7 0 -12 3 -11 6 0 3 0 13 -1 21 -1 12 -4 12 -12 -2 -11 -20
-34 -24 -45 -6 -5 7 -3 8 6 3 8 -5 11 -4 6 3 -3 6 -1 14 5 18 7 4 9 3 5 -4 -3
-6 -2 -13 4 -17 5 -3 10 -2 10 4 0 20 32 41 63 42 27 0 29 2 12 9 -15 7 -8 9
30 11 l50 3 -47 3 c-59 5 -106 -18 -168 -81 -24 -25 -40 -46 -36 -46 5 0 15 8
22 18 9 12 13 13 14 3 0 -7 6 -11 15 -7 8 3 15 2 15 -3 0 -5 -20 -12 -44 -15
-24 -4 -50 -14 -56 -21 -9 -11 -9 -15 -1 -15 6 0 11 4 11 10 0 10 76 7 87 -4
4 -4 -10 -7 -32 -7 -54 1 -93 -4 -102 -12 -3 -4 5 -7 20 -7 14 0 29 -4 32 -10
3 -5 16 -10 27 -10 25 0 21 -7 -7 -12 -11 -1 -26 -11 -34 -21 -10 -15 -21 -17
-53 -12 -30 5 -39 4 -33 -5 4 -6 14 -9 22 -6 8 3 11 1 8 -5 -4 -5 -14 -9 -23
-8 -10 1 -19 0 -22 -1 -21 -8 -50 -4 -50 7 0 7 -5 13 -12 13 -6 0 -9 3 -6 6 4
3 17 -2 31 -11 21 -14 25 -14 30 -1 3 8 1 17 -6 19 -7 3 0 8 16 12 15 4 27 12
27 17 0 6 9 8 20 5 11 -3 18 -1 14 4 -8 13 -27 11 -65 -8 -41 -21 -172 -29
-211 -14 -24 9 -28 16 -28 48 0 55 41 133 90 176 64 54 184 112 285 137 115
29 225 24 335 -15 197 -70 196 -70 385 42 116 68 241 103 390 110 86 4 123 1
170 -12 117 -34 131 -32 215 22 121 79 141 84 358 97 l193 12 97 100 c172 178
344 269 559 294 54 7 101 14 106 17 14 8 7 21 -38 64 -43 42 -45 45 -29 67 20
28 74 56 144 72 76 18 120 38 120 54 0 8 -20 36 -45 64 -82 92 -52 156 110
238 l90 45 -54 -6 c-29 -3 -80 -19 -112 -36 -66 -33 -77 -35 -59 -14 7 8 16
13 20 10 4 -3 13 1 19 9 9 11 8 15 -5 20 -9 3 -21 3 -26 -1 -7 -3 -8 -1 -4 6
4 6 0 14 -8 17 -19 7 -21 36 -5 67 13 25 29 41 82 80 40 31 50 73 22 100 -13
13 -22 13 -76 -4 -74 -23 -108 -24 -156 -4 -58 24 -100 62 -139 122 -20 31
-47 65 -60 76 -32 25 -30 45 11 103 51 71 47 91 -11 55 -22 -13 -36 -16 -50
-10 -16 8 -17 8 -3 -2 15 -11 15 -15 -3 -46 -11 -18 -25 -33 -31 -32 -8 0 -8
2 1 6 17 7 15 23 -5 40 -16 13 -16 13 5 3 15 -7 22 -7 22 0 0 5 -7 11 -15 11
-16 2 -32 5 -40 9 -3 1 -9 4 -15 5 -5 1 -13 4 -17 5 -5 1 -11 2 -15 1 -5 0 -8
4 -8 10 0 6 7 9 15 6 8 -4 17 -2 20 3 4 6 -4 10 -17 11 -13 0 -17 3 -10 6 7 3
26 0 42 -6 28 -9 29 -9 20 9 -9 18 -7 20 15 20 15 0 24 4 20 9 -3 6 -22 4 -47
-5 -22 -7 -49 -14 -60 -14 -10 0 -16 -5 -13 -10 4 -7 -6 -9 -27 -8 -43 4 -218
95 -213 111 2 6 11 36 20 65 9 29 14 64 11 78 -6 23 -10 25 -39 19 -40 -9 -62
-28 -89 -77 -24 -42 -36 -46 -67 -20 l-22 17 53 46 c29 24 68 55 86 68 22 15
30 27 24 33 -6 6 -54 -9 -133 -42 l-124 -53 -63 11 c-35 6 -74 18 -88 27 -38
24 -66 98 -70 176 -3 79 -14 104 -49 113 -41 10 -95 -10 -175 -64 -40 -28 -85
-57 -99 -64 -70 -36 -286 -26 -348 17 -41 28 -49 48 -79 182 -35 158 -87 225
-176 225 -32 0 -41 -6 -73 -50 -78 -106 -183 -170 -279 -170 -64 0 -84 21 -95
99 -6 52 -14 69 -35 88 -15 13 -34 23 -42 23 -28 0 -138 -52 -178 -85 -70 -56
-104 -69 -181 -69 -60 1 -81 6 -145 37 -122 60 -193 51 -290 -38 -56 -51 -137
-70 -193 -44 -13 6 -43 40 -67 75 -53 79 -60 85 -108 94 -57 10 -108 -21 -160
-100 -24 -36 -54 -77 -67 -91 -25 -27 -111 -56 -175 -59 -61 -3 -146 1 -132 7
27 11 -95 121 -136 123 -7 0 -24 -11 -37 -25 -27 -26 -31 -25 -15 6 16 29 -2
23 -25 -8 -33 -45 -89 -93 -110 -94 l-20 -1 20 -6 c21 -5 -69 -31 -113 -32
-13 0 -36 -10 -52 -21 -27 -20 -33 -21 -119 -11 -51 6 -98 9 -105 6 -7 -3 -16
2 -20 11 -3 9 -10 13 -16 10 -6 -4 -10 10 -10 36 0 73 -12 34 -16 -50 -4 -103
-21 -136 -82 -164 -41 -19 -65 -22 -177 -22 -117 0 -133 2 -166 23 -38 23 -64
28 -73 13 -4 -5 1 -37 10 -70 14 -58 14 -64 -3 -99 -22 -44 -68 -77 -120 -85
-36 -6 -160 5 -225 19 -24 5 -21 0 28 -49 35 -35 54 -62 52 -73 -6 -32 -63
-60 -145 -73 -136 -21 -176 -36 -211 -80 -18 -22 -32 -44 -32 -49 0 -5 11 -19
25 -32 36 -34 49 -89 27 -113 -28 -31 -132 -20 -197 21 -61 39 -151 63 -202
55 -37 -6 -37 -7 35 -24 114 -29 161 -68 162 -136 0 -53 -19 -72 -105 -102
-36 -13 -67 -27 -70 -31 -6 -10 69 -46 128 -61 78 -19 103 -70 77 -158 -13
-47 -2 -62 79 -105 63 -33 111 -75 111 -97 0 -4 -11 -21 -25 -37 -14 -17 -25
-34 -25 -39 0 -13 45 -33 73 -33 32 0 174 -47 211 -70 99 -61 179 -188 135
-216 -14 -8 -208 -23 -319 -24 -99 -1 -188 22 -265 71 -64 40 -106 79 -98 92
3 6 1 7 -5 3 -12 -7 -44 35 -72 96 -22 49 -27 153 -9 223 14 54 0 83 -42 92
-16 3 -29 9 -29 13 0 4 -8 7 -17 6 -10 0 -17 4 -16 10 1 7 -23 15 -60 19 -34
5 -54 10 -44 12 9 3 15 9 12 14 -11 17 6 31 21 18 17 -14 19 -33 2 -23 -6 4
-8 3 -5 -4 6 -8 47 -6 47 3 0 16 -15 35 -29 36 -9 1 -5 4 9 8 20 6 14 9 -32
15 -32 4 -58 12 -58 17 0 5 -7 9 -15 9 -21 0 -20 5 20 77 19 35 35 71 35 80 0
10 -20 36 -45 59 -41 37 -45 45 -45 89 0 57 23 98 87 154 60 53 113 78 198 91
38 6 73 16 77 23 4 7 8 30 8 52 1 157 146 271 388 305 90 12 113 27 152 97 85
151 237 220 391 177 35 -9 80 -19 100 -21 39 -5 50 3 129 105 22 29 66 69 97
90 52 34 62 37 127 37 58 0 85 -6 148 -32 42 -18 84 -33 92 -33 9 0 33 23 53
51 65 86 140 124 295 149 83 13 187 -1 273 -37 70 -30 109 -33 150 -11 164 87
152 83 265 83 105 0 105 0 182 -42 42 -24 82 -43 88 -43 6 0 37 17 68 39 110
74 140 86 222 86 68 0 81 -4 145 -39 90 -50 120 -59 136 -40 6 8 18 14 26 14
23 0 84 31 132 67 41 31 49 33 120 33 59 0 87 -6 126 -24z m-127 -705 c101
-38 133 -47 216 -61 80 -13 92 -18 163 -71 48 -36 57 -39 155 -48 78 -8 121
-18 178 -42 70 -29 86 -32 249 -40 235 -12 259 -20 396 -123 63 -48 154 -88
295 -130 180 -54 274 -130 326 -266 10 -25 35 -71 57 -102 39 -57 40 -58 35
-134 l-5 -76 -69 -68 c-81 -80 -93 -104 -94 -185 0 -74 -12 -92 -93 -147 -34
-22 -89 -62 -123 -89 -33 -26 -74 -54 -91 -62 -57 -30 -194 -58 -311 -64 -123
-6 -133 -9 -252 -75 -115 -64 -287 -93 -560 -92 -142 0 -184 4 -299 28 -165
34 -268 34 -317 -1 l-32 -23 -17 68 c-11 42 -20 133 -25 247 -12 266 -38 368
-132 512 l-40 63 12 84 12 84 41 6 c23 3 91 8 151 12 161 10 108 27 -72 22
-124 -2 -152 -6 -179 -22 -18 -11 -30 -22 -28 -25 2 -3 -9 -6 -23 -7 -63 -3
-198 -29 -213 -41 -8 -7 -21 -13 -27 -13 -14 0 -125 -51 -132 -61 -3 -3 -27
-21 -54 -38 -42 -26 -60 -31 -112 -31 -71 0 -168 27 -214 60 l-32 23 16 -31
c9 -17 16 -36 16 -41 0 -16 -119 -47 -265 -69 -145 -23 -216 -46 -384 -122
-62 -28 -147 -59 -187 -67 -100 -22 -140 -10 -214 66 -30 31 -69 66 -85 78
-43 30 -153 60 -270 73 -131 15 -164 31 -189 92 l-20 48 24 57 24 57 -27 48
c-47 85 -36 117 72 197 118 87 332 188 571 268 89 30 145 57 184 90 70 59 156
69 235 27 52 -27 84 -31 141 -20 77 16 246 68 310 95 91 39 219 69 310 73 41
2 163 -1 270 -5 200 -9 204 -9 470 36 14 2 60 5 103 6 64 1 92 -4 155 -28z
m2272 -301 c0 -5 -2 -10 -4 -10 -3 0 -8 5 -11 10 -3 6 -1 10 4 10 6 0 11 -4
11 -10z m-6411 -513 c-1 -17 -2 -18 -6 -4 -2 9 -9 15 -14 12 -5 -3 -6 1 -3 9
8 22 24 10 23 -17z m-32 -54 c-3 -10 -5 -4 -5 12 0 17 2 24 5 18 2 -7 2 -21 0
-30z m6960 -55 c-3 -8 -6 -5 -6 6 -1 11 2 17 5 13 3 -3 4 -12 1 -19z m-6849
-58 c-7 -11 -22 -20 -33 -20 -17 0 -15 3 10 20 37 25 38 25 23 0z m1186 -84
l27 -14 -25 -4 c-24 -5 -46 7 -46 24 0 12 14 10 44 -6z m81 -26 c3 -5 1 -10
-4 -10 -6 0 -11 5 -11 10 0 6 2 10 4 10 3 0 8 -4 11 -10z m44 -22 c48 -1 76
-5 69 -10 -8 -5 -2 -6 14 -2 29 6 141 -16 217 -44 l44 -16 -34 -12 c-19 -7
-48 -13 -65 -13 -17 -1 -45 -6 -63 -12 -27 -9 -41 -7 -97 15 -37 15 -83 38
-102 51 -20 14 -48 25 -61 25 -13 0 -21 3 -18 7 4 3 1 13 -6 22 -10 14 -10 14
4 3 10 -7 50 -13 98 -14z m-1244 -59 c11 0 34 -6 50 -12 l30 -12 1 -95 c0 -81
4 -105 28 -159 15 -35 25 -65 22 -68 -3 -3 -31 21 -63 53 -76 78 -151 206
-183 316 l-8 26 51 -24 c29 -13 61 -24 72 -25z m2889 17 c-17 -8 -98 -34 -180
-59 -244 -75 -308 -97 -389 -132 -26 -12 -116 -34 -495 -127 -47 -11 -107 -29
-135 -39 -68 -25 -171 -40 -199 -29 -71 26 -241 19 -305 -14 -14 -8 -44 -30
-66 -50 -42 -39 -55 -44 -55 -22 0 17 67 79 108 100 49 25 169 35 289 23 107
-10 110 -10 203 20 52 17 127 36 165 43 99 17 345 77 439 107 87 27 88 42 1
42 -50 0 -126 9 -134 17 -2 2 8 4 23 4 15 0 25 4 22 8 -3 4 43 24 102 44 111
38 281 61 417 57 61 -2 175 8 184 16 2 3 11 5 20 5 9 -1 2 -7 -15 -14z m445
-91 c-3 -3 -21 -8 -40 -11 l-34 -6 30 21 c19 13 33 17 39 11 5 -5 7 -12 5 -15z
m-764 -144 c-6 -5 -41 -30 -80 -55 l-70 -47 42 41 c23 22 55 47 70 55 32 17
52 20 38 6z m1178 -396 c13 -77 32 -359 20 -298 -3 14 -9 20 -19 16 -9 -3 -14
2 -15 13 -2 39 -7 255 -12 444 -4 164 -3 173 3 55 4 -77 14 -180 23 -230z
m-1573 176 c-47 -25 -136 -54 -151 -49 -6 2 8 13 32 25 75 36 93 42 124 42
l30 0 -35 -18z m-2032 -121 c27 -54 73 -122 222 -324 91 -124 348 -384 450
-455 41 -29 102 -66 135 -83 39 -20 98 -68 175 -142 63 -61 167 -148 230 -192
129 -91 265 -169 279 -160 5 4 13 1 17 -5 5 -8 3 -9 -6 -4 -9 6 -11 4 -6 -4 5
-7 14 -10 22 -7 8 3 14 2 14 -3 0 -25 309 -147 532 -210 134 -38 219 -58 498
-117 128 -27 403 -66 610 -86 175 -17 825 -17 1015 0 657 59 1147 156 1670
334 388 131 683 327 922 613 29 35 40 43 36 28 -3 -13 -1 -23 6 -23 37 0 -72
-143 -208 -272 -254 -241 -565 -419 -996 -568 -733 -253 -1651 -364 -2555
-309 -497 30 -1126 135 -1500 250 -235 73 -392 129 -505 180 -95 43 -131 55
-137 46 -5 -8 -8 -8 -8 -1 0 6 -11 10 -25 9 -14 -2 -23 1 -20 5 3 5 1 11 -5
15 -6 3 -12 0 -15 -7 -3 -8 -15 -14 -25 -15 -11 -1 -18 2 -15 8 4 5 -6 9 -22
9 -22 0 -25 2 -13 10 8 5 11 10 5 11 -5 1 -19 3 -30 4 -34 4 -65 17 -65 27 0
6 -13 8 -32 4 -22 -4 -28 -3 -19 3 12 8 12 11 0 23 -8 7 -21 14 -29 16 -8 2
-16 7 -18 12 -2 5 -9 7 -17 4 -7 -3 -16 -1 -20 5 -3 6 -1 11 5 11 6 0 9 4 6 9
-3 5 -14 7 -24 4 -10 -2 -25 3 -33 13 -9 11 -9 15 -1 10 6 -4 12 -2 12 3 0 15
-13 14 -29 -1 -9 -9 -12 -9 -7 -1 7 13 -28 28 -55 25 -9 -2 -22 4 -29 13 -7 9
-8 15 -2 15 6 0 12 -5 14 -12 3 -8 9 -8 24 1 13 9 14 11 2 7 -9 -2 -19 -2 -23
2 -4 4 -17 7 -28 7 -14 0 -21 5 -19 15 2 8 0 12 -4 8 -9 -10 -84 50 -84 67 0
7 -13 19 -29 26 -17 7 -32 21 -34 31 -3 10 -13 18 -22 18 -19 0 -47 25 -38 34
4 3 1 6 -5 6 -7 0 -12 7 -12 16 0 8 -4 13 -9 10 -22 -14 -166 182 -235 321
-68 137 -80 193 -80 368 0 189 25 287 111 434 l26 44 14 -39 c8 -21 26 -64 41
-94z m3056 69 c-7 -11 -44 -12 -44 -1 0 4 5 13 12 20 13 13 42 -4 32 -19z
m3493 25 c-3 -3 -12 -4 -19 -1 -8 3 -5 6 6 6 11 1 17 -2 13 -5z m373 -48 c0
-2 -8 -10 -17 -17 -16 -13 -17 -12 -4 4 13 16 21 21 21 13z m-6115 -45 c53
-30 89 -85 129 -196 13 -35 37 -68 81 -110 l63 -60 4 -80 c5 -103 27 -150 88
-185 97 -55 158 -62 256 -31 97 31 109 32 167 13 61 -19 63 -31 7 -49 -19 -6
-116 -41 -215 -78 -107 -40 -202 -69 -235 -72 l-55 -5 24 20 c20 16 22 24 16
59 -3 22 -25 72 -47 109 -67 114 -169 301 -238 439 -53 105 -73 136 -108 162
-65 49 -86 51 -135 14 -23 -17 -56 -39 -74 -48 -29 -15 -34 -15 -57 1 -22 14
-26 24 -26 65 l0 49 108 7 c59 3 114 8 122 9 30 7 76 -6 125 -33z m-474 3 c8
-5 9 -3 4 5 -6 10 2 12 31 7 22 -3 43 -5 48 -6 4 0 5 -11 2 -24 -3 -14 -2 -36
4 -51 9 -24 8 -26 -12 -19 -35 10 -120 54 -147 75 -27 21 -21 25 12 7 19 -10
20 -9 9 4 -10 13 -9 15 12 13 14 -2 30 -6 37 -11z m6509 -50 c-30 -30 -80 -72
-110 -92 -30 -20 -77 -57 -105 -82 -141 -130 -277 -224 -428 -295 -165 -79
-589 -211 -897 -281 -142 -32 -190 -38 -340 -44 -129 -5 -207 -14 -295 -33
-174 -37 -273 -46 -625 -57 -174 -5 -338 -12 -365 -15 l-50 -5 50 15 c71 22
95 35 138 75 46 42 91 51 217 43 61 -3 99 -12 136 -29 134 -63 302 -52 469 31
66 32 135 86 135 104 0 5 14 14 30 21 50 21 158 7 236 -30 106 -51 224 -59
346 -25 25 7 49 11 52 8 3 -4 6 -1 6 5 0 7 15 12 33 13 27 0 29 2 12 9 -18 8
-17 9 8 9 16 1 26 5 22 11 -3 6 3 10 15 10 12 0 18 5 15 10 -4 6 6 10 22 10
22 0 25 2 13 10 -11 7 -5 10 25 11 33 0 36 2 20 10 -16 7 -13 8 13 4 18 -2 31
-1 27 4 -3 5 39 12 92 16 54 3 115 7 135 9 21 1 41 5 45 9 3 4 17 7 29 7 20 0
81 30 119 57 19 14 82 97 105 140 14 26 28 39 36 36 8 -3 35 -2 60 2 62 9 110
54 146 135 57 129 55 128 141 105 73 -19 110 -19 146 0 16 8 32 11 36 7 3 -4
5 0 3 8 -2 10 4 14 17 12 13 -1 36 14 65 43 24 25 46 45 49 45 3 0 -19 -25
-49 -56z m-3967 39 c-7 -2 -19 -2 -25 0 -7 3 -2 5 12 5 14 0 19 -2 13 -5z
m-1394 -46 c17 -7 29 -16 26 -19 -6 -5 -104 18 -113 27 -11 11 57 4 87 -8z
m-791 -12 c51 -21 63 -38 165 -245 48 -96 122 -235 166 -309 86 -145 101 -186
75 -210 -8 -9 -14 -11 -12 -6 1 6 -36 48 -84 95 -100 99 -184 223 -268 396
-56 114 -62 123 -121 164 l-62 43 49 43 c27 24 50 43 51 44 2 0 20 -7 41 -15z
m2710 -204 c2 -13 -6 -45 -17 -71 -23 -54 -26 -109 -10 -175 11 -43 10 -46
-30 -106 -37 -55 -41 -67 -41 -123 1 -81 26 -137 79 -170 23 -15 39 -33 39
-43 0 -10 2 -52 6 -93 3 -41 4 -70 1 -64 -7 14 -89 7 -94 -9 -2 -6 -14 -21
-27 -34 -12 -12 -29 -35 -36 -50 -11 -23 -20 -28 -51 -28 -32 0 -37 -3 -35
-20 3 -17 17 -22 91 -35 l89 -15 37 -55 c165 -242 153 -220 123 -220 -15 0
-101 5 -192 10 -680 40 -1260 173 -1782 409 -63 28 -92 48 -50 35 13 -5 14 -4
3 4 -8 6 -19 8 -26 6 -6 -3 -31 7 -56 20 -44 26 -48 36 -6 15 21 -10 21 -10 3
5 -11 9 -29 16 -41 16 -12 0 -31 9 -43 20 -12 11 -26 20 -32 20 -6 0 -8 5 -4
12 4 6 3 8 -3 5 -11 -7 -96 47 -87 55 3 3 -2 5 -12 4 -9 0 -19 5 -21 12 -3 8
7 12 34 12 25 0 33 3 25 9 -10 6 -8 10 10 14 12 2 61 19 108 37 92 34 199 70
209 70 3 0 -1 -5 -9 -11 -11 -8 -8 -9 15 -4 17 4 84 10 150 14 131 8 145 13
255 89 86 61 337 161 362 146 6 -4 8 -3 5 3 -3 5 11 15 31 22 20 7 56 21 79
32 24 10 50 19 58 19 8 0 15 5 15 10 0 6 8 10 18 10 10 0 23 5 30 12 14 14 83
12 93 -3 4 -7 55 -15 130 -20 68 -4 139 -13 157 -19 50 -18 140 -8 203 23 40
19 61 38 81 72 17 27 46 56 73 73 25 15 51 39 58 55 14 31 31 31 35 -2z m-336
-106 c-5 -28 -6 -29 -61 -15 -56 13 -66 27 -23 32 66 8 87 4 84 -17z m-879
-52 c-13 -2 -35 -2 -50 0 -16 2 -5 4 22 4 28 0 40 -2 28 -4z m6 -22 c18 -11
-4 -25 -27 -17 -14 5 -13 3 2 -9 17 -13 17 -15 3 -21 -9 -3 -14 -10 -11 -15 3
-5 -1 -9 -9 -9 -7 0 -46 -16 -86 -35 -39 -19 -74 -35 -78 -35 -4 0 -15 -7 -25
-17 -11 -9 -18 -11 -18 -5 0 7 6 12 13 12 8 0 7 4 -3 10 -10 6 -11 10 -2 10 6
0 11 3 11 8 -4 21 2 32 13 26 7 -5 9 -2 5 8 -6 18 25 52 37 41 4 -5 6 -1 4 7
-1 8 7 19 20 25 12 5 22 13 22 17 0 9 113 9 129 -1z m-303 -11 c24 0 4 -28
-28 -39 -17 -6 -35 -11 -39 -11 -16 0 3 29 23 36 17 5 18 8 7 16 -11 8 -10 8
4 4 10 -3 25 -6 33 -6z m341 -36 c-3 -3 -12 -4 -19 -1 -8 3 -5 6 6 6 11 1 17
-2 13 -5z m-2450 -66 c-3 -8 -6 -5 -6 6 -1 11 2 17 5 13 3 -3 4 -12 1 -19z
m7198 -78 c-4 -34 -9 -59 -12 -57 -2 3 -1 33 3 66 4 34 9 60 11 57 3 -3 2 -32
-2 -66z m-5170 40 c4 -6 -5 -10 -20 -10 -15 0 -24 4 -20 10 3 6 12 10 20 10 8
0 17 -4 20 -10z m-1966 -130 c11 -24 11 -24 -3 -6 -9 11 -16 24 -16 30 0 12 5
7 19 -24z m3921 -32 c0 -9 -36 -5 -46 5 -4 4 5 6 19 5 15 -1 27 -6 27 -10z
m3187 -10 c-3 -8 -6 -5 -6 6 -1 11 2 17 5 13 3 -3 4 -12 1 -19z m-3167 -14 c0
-8 -19 -13 -24 -6 -3 5 1 9 9 9 8 0 15 -2 15 -3z m558 -21 c-10 -2 -28 -2 -40
0 -13 2 -5 4 17 4 22 1 32 -1 23 -4z m-591 -9 c-3 -3 -12 -4 -19 -1 -8 3 -5 6
6 6 11 1 17 -2 13 -5z m-3847 -24 c6 -11 8 -20 6 -20 -3 0 -10 9 -16 20 -6 11
-8 20 -6 20 3 0 10 -9 16 -20z m7016 -21 c-9 -19 -15 -29 -16 -22 0 15 22 64
27 60 2 -2 -3 -19 -11 -38z m-3349 -16 c-20 -2 -52 -2 -70 0 -17 2 0 4 38 4
39 0 53 -2 32 -4z m-2544 -27 c18 -7 87 -46 153 -86 213 -130 341 -195 529
-270 479 -191 963 -297 1505 -330 96 -6 220 -16 275 -21 55 -6 108 -11 117
-12 9 -1 14 -5 12 -9 -3 -4 1 -8 8 -8 7 0 24 -10 38 -21 l25 -20 -260 5 c-474
9 -898 73 -1340 202 -388 113 -817 318 -1017 485 -107 89 -121 117 -45 85z
m5852 -45 c-13 -27 -30 -53 -36 -56 -6 -4 1 15 16 41 36 64 35 64 41 64 2 0
-7 -22 -21 -49z m-6889 -18 c15 -20 23 -33 16 -29 -13 8 -56 66 -49 66 3 0 17
-17 33 -37z m5294 17 c-14 -4 -36 -8 -50 -8 -22 0 -22 1 5 8 17 4 39 8 50 8
16 0 15 -2 -5 -8z m-1671 -11 c-7 -4 -6 -56 5 -171 22 -233 21 -313 -4 -338
-32 -32 -56 -25 -95 28 -45 62 -56 93 -40 115 11 15 16 12 45 -29 17 -25 34
-43 36 -41 3 2 -7 38 -20 79 -22 64 -56 276 -56 344 0 21 4 22 70 21 38 -1 65
-4 59 -8z m1576 -9 c-11 -5 -14 -9 -7 -9 25 -2 11 -30 -19 -36 -23 -5 -28 -9
-18 -16 10 -6 7 -9 -11 -10 -14 -1 -28 -1 -32 0 -5 0 -8 -3 -8 -9 0 -5 6 -10
13 -11 6 0 -3 -5 -21 -10 -18 -5 -30 -14 -27 -19 3 -5 -1 -12 -9 -17 -7 -4
-15 -17 -18 -28 -2 -11 -10 -21 -18 -21 -8 -1 -22 -2 -30 -3 -12 -1 -13 -3 -1
-10 11 -7 9 -10 -8 -16 -11 -3 -21 -9 -21 -13 0 -4 -11 -19 -25 -34 -16 -18
-20 -28 -12 -31 7 -3 1 -6 -12 -6 -17 -1 -21 -5 -17 -17 3 -8 2 -12 -4 -9 -5
3 -29 -7 -52 -23 -24 -16 -57 -36 -74 -45 -35 -18 -231 -60 -243 -53 -5 3 -42
-1 -82 -8 -41 -8 -105 -17 -142 -21 -68 -6 -69 -6 -62 16 6 19 5 21 -11 14
-81 -35 -127 -43 -257 -47 l-137 -4 6 96 c4 52 12 140 18 195 l11 100 195 7
c356 12 692 43 1025 92 50 7 99 14 110 14 l20 1 -20 -9z m45 -10 c-8 -5 -19
-10 -25 -10 -5 0 -3 5 5 10 8 5 20 10 25 10 6 0 3 -5 -5 -10z m-4979 -187 c13
-16 12 -17 -3 -4 -10 7 -18 15 -18 17 0 8 8 3 21 -13z m4894 -203 c7 -11 -9
-18 -121 -54 -238 -75 -754 -140 -1179 -149 -104 -3 -154 -2 -110 2 76 6 78 6
37 14 -24 4 -48 4 -54 1 -7 -4 -8 -2 -4 4 5 8 51 12 139 13 87 1 122 4 102 9
-22 6 -10 8 42 7 39 -1 69 1 67 5 -5 8 181 22 296 22 47 0 72 2 55 5 -17 2 31
12 109 22 76 10 143 16 148 13 4 -3 8 0 8 5 0 6 13 11 28 11 16 0 71 9 123 20
52 12 121 20 154 20 81 -2 97 1 55 10 -34 7 -34 7 13 9 26 0 47 6 47 11 0 13
37 13 45 0z m-4430 -110 c3 -6 -1 -7 -9 -4 -18 7 -21 14 -7 14 6 0 13 -4 16
-10z m5632 -26 c-3 -3 -12 -4 -19 -1 -8 3 -5 6 6 6 11 1 17 -2 13 -5z m173
-24 c0 -5 -2 -10 -4 -10 -3 0 -8 5 -11 10 -3 6 -1 10 4 10 6 0 11 -4 11 -10z
m-210 -39 c0 -2 -12 -14 -27 -28 l-28 -24 28 5 c15 3 25 1 23 -3 -5 -8 -17 -8
-96 -1 -25 2 -29 4 -12 7 12 2 22 9 22 14 0 5 5 9 11 9 5 0 7 -4 4 -10 -3 -5
-1 -10 4 -10 15 0 14 37 -1 42 -6 2 7 4 30 4 23 -1 42 -3 42 -5z m-2143 -57
c-3 -3 -12 -4 -19 -1 -8 3 -5 6 6 6 11 1 17 -2 13 -5z m2026 -21 c-7 -2 -9
-12 -6 -21 4 -14 3 -15 -5 -2 -11 15 5 47 17 34 3 -4 1 -9 -6 -11z m37 13 c0
-3 -4 -8 -10 -11 -5 -3 -10 -1 -10 4 0 6 5 11 10 11 6 0 10 -2 10 -4z m-115
-16 c13 -6 15 -9 5 -9 -8 0 -22 4 -30 9 -18 12 -2 12 25 0z m205 0 c0 -13 -11
-13 -30 0 -12 8 -11 10 8 10 12 0 22 -4 22 -10z m-2202 -7 c-15 -2 -42 -2 -60
0 -18 2 -6 4 27 4 33 0 48 -2 33 -4z m-180 -10 c-16 -2 -40 -2 -55 0 -16 2 -3
4 27 4 30 0 43 -2 28 -4z m2329 1 c-3 -3 -12 -4 -19 -1 -8 3 -5 6 6 6 11 1 17
-2 13 -5z m-112 -14 c3 -6 -1 -7 -9 -4 -18 7 -21 14 -7 14 6 0 13 -4 16 -10z
m-50 -10 c-3 -5 -25 -9 -48 -8 l-42 1 45 7 c25 4 46 8 48 8 2 1 0 -2 -3 -8z
m155 0 c0 -5 -7 -10 -15 -10 -8 0 -15 5 -15 10 0 6 7 10 15 10 8 0 15 -4 15
-10z m-283 -16 c-3 -3 -12 -4 -19 -1 -8 3 -5 6 6 6 11 1 17 -2 13 -5z m-5210
-10 c-3 -3 -12 -4 -19 -1 -8 3 -5 6 6 6 11 1 17 -2 13 -5z m5258 -13 c-3 -6
-25 -10 -48 -9 -41 1 -41 1 -7 5 19 3 39 9 44 14 12 11 20 4 11 -10z m45 15
c0 -2 -7 -7 -16 -10 -8 -3 -12 -2 -9 4 6 10 25 14 25 6z m57 -28 c-3 -8 -6 -5
-6 6 -1 11 2 17 5 13 3 -3 4 -12 1 -19z m33 12 c0 -5 -2 -10 -4 -10 -3 0 -8 5
-11 10 -3 6 -1 10 4 10 6 0 11 -4 11 -10z m35 0 c3 -5 1 -10 -4 -10 -6 0 -11
5 -11 10 0 6 2 10 4 10 3 0 8 -4 11 -10z m-5128 -6 c-3 -3 -12 -4 -19 -1 -8 3
-5 6 6 6 11 1 17 -2 13 -5z m-150 -10 c-3 -3 -12 -4 -19 -1 -8 3 -5 6 6 6 11
1 17 -2 13 -5z m5190 0 c-3 -3 -12 -4 -19 -1 -8 3 -5 6 6 6 11 1 17 -2 13 -5z
m-5023 -13 c3 -5 -1 -11 -9 -15 -9 -3 -15 0 -15 9 0 16 16 20 24 6z m-104 -11
c0 -5 -7 -7 -15 -4 -8 4 -15 8 -15 10 0 2 7 4 15 4 8 0 15 -4 15 -10z m5140 0
c0 -5 -9 -10 -19 -10 -11 0 -23 5 -26 10 -4 6 5 10 19 10 14 0 26 -4 26 -10z
m-4970 -4 c0 -9 -30 -14 -35 -6 -4 6 3 10 14 10 12 0 21 -2 21 -4z m123 -43
c-7 -2 -21 -2 -30 0 -10 3 -4 5 12 5 17 0 24 -2 18 -5z m57 -23 c-14 -4 -34
-4 -44 -1 -19 4 -19 5 -1 11 10 4 30 4 44 1 l26 -5 -25 -6z m-100 5 c0 -3 -12
-10 -27 -16 -19 -7 -29 -6 -37 2 -8 9 -7 11 4 7 8 -3 24 -2 35 3 26 10 25 10
25 4z m4504 -5 c-5 -5 -25 -12 -44 -15 -35 -5 -35 -5 5 9 51 18 51 18 39 6z
m-4344 -16 c0 -2 -7 -4 -15 -4 -8 0 -15 4 -15 10 0 5 7 7 15 4 8 -4 15 -8 15
-10z m-105 -3 c-11 -10 -40 -15 -70 -11 -11 2 0 6 25 10 25 4 47 8 50 8 2 1 0
-2 -5 -7z m4262 -7 c-3 -3 -12 -4 -19 -1 -8 3 -5 6 6 6 11 1 17 -2 13 -5z
m236 -1 c-7 -2 -19 -2 -25 0 -7 3 -2 5 12 5 14 0 19 -2 13 -5z m-4490 -20 c-7
-2 -19 -2 -25 0 -7 3 -2 5 12 5 14 0 19 -2 13 -5z m54 1 c-3 -3 -12 -4 -19 -1
-8 3 -5 6 6 6 11 1 17 -2 13 -5z m4283 -17 c0 -8 -3 -8 -11 0 -6 6 -19 9 -28
6 -13 -4 -13 -3 -2 5 16 12 41 5 41 -11z m-4087 6 c-7 -2 -21 -2 -30 0 -10 3
-4 5 12 5 17 0 24 -2 18 -5z m-190 -10 c-7 -2 -19 -2 -25 0 -7 3 -2 5 12 5 14
0 19 -2 13 -5z m44 1 c-3 -3 -12 -4 -19 -1 -8 3 -5 6 6 6 11 1 17 -2 13 -5z
m4020 0 c-3 -3 -12 -4 -19 -1 -8 3 -5 6 6 6 11 1 17 -2 13 -5z m290 0 c-3 -3
-12 -4 -19 -1 -8 3 -5 6 6 6 11 1 17 -2 13 -5z m-4257 -24 c-8 -5 -19 -10 -25
-10 -5 0 -3 5 5 10 8 5 20 10 25 10 6 0 3 -5 -5 -10z m-77 -7 c-7 -2 -19 -2
-25 0 -7 3 -2 5 12 5 14 0 19 -2 13 -5z m143 -8 c-23 -17 -36 -19 -36 -6 0 5
10 12 23 14 12 2 24 5 27 5 3 1 -4 -5 -14 -13z m3767 -2 c-7 -2 -21 -2 -30 0
-10 3 -4 5 12 5 17 0 24 -2 18 -5z m-3872 -12 c-12 -8 -51 -4 -51 5 0 2 15 4
33 4 22 0 28 -3 18 -9z m462 -18 c-7 -2 -21 -2 -30 0 -10 3 -4 5 12 5 17 0 24
-2 18 -5z m214 -19 c-3 -3 -12 -4 -19 -1 -8 3 -5 6 6 6 11 1 17 -2 13 -5z
m2810 -30 c-3 -3 -12 -4 -19 -1 -8 3 -5 6 6 6 11 1 17 -2 13 -5z m-2614 -31
c-7 -2 -19 -2 -25 0 -7 3 -2 5 12 5 14 0 19 -2 13 -5z m2365 -10 c-10 -2 -28
-2 -40 0 -13 2 -5 4 17 4 22 1 32 -1 23 -4z"/>
<path d="M5570 4103 c0 -14 10 -16 34 -7 24 9 19 19 -9 19 -14 0 -25 -6 -25
-12z"/>
<path d="M5820 4015 c0 -2 9 -9 20 -15 16 -9 18 -8 14 5 -5 13 -34 22 -34 10z"/>
<path d="M5400 3950 c-9 -6 -10 -10 -3 -10 6 0 15 5 18 10 8 12 4 12 -15 0z"/>
<path d="M4018 5693 c28 -52 75 -77 172 -93 41 -7 84 -20 95 -29 20 -16 20
-16 1 6 -17 21 -103 53 -141 53 -9 0 -43 18 -76 41 -39 26 -57 34 -51 22z"/>
<path d="M6920 5309 c-19 -10 -48 -21 -65 -25 -26 -7 -27 -8 -8 -11 22 -4 96
28 108 47 7 12 9 12 -35 -11z"/>
<path d="M4220 5271 c0 -5 9 -7 20 -4 11 3 20 7 20 9 0 2 -9 4 -20 4 -11 0
-20 -4 -20 -9z"/>
<path d="M8209 4603 c-13 -17 -13 -17 6 -3 11 8 22 16 24 17 2 2 0 3 -6 3 -6
0 -17 -8 -24 -17z"/>
<path d="M7570 4116 c0 -2 7 -7 16 -10 8 -3 12 -2 9 4 -6 10 -25 14 -25 6z"/>
<path d="M7435 4060 c-13 -5 -14 -9 -5 -9 8 0 24 4 35 9 13 5 14 9 5 9 -8 0
-24 -4 -35 -9z"/>
<path d="M3723 3974 c-10 -26 2 -49 28 -52 28 -3 54 20 46 42 -7 18 -67 27
-74 10z"/>
<path d="M4514 3901 c-18 -11 -35 -25 -39 -32 -13 -21 -7 -70 11 -90 9 -10 13
-19 8 -19 -5 0 5 -8 21 -17 45 -24 211 -24 248 0 56 36 25 130 -53 161 -57 23
-157 21 -196 -3z m84 -27 c34 -9 26 -24 -12 -24 -34 0 -52 11 -39 24 8 7 21 8
51 0z"/>
<path d="M3423 3813 c-7 -2 -13 -13 -13 -23 0 -9 6 -22 13 -27 17 -14 80 -24
93 -15 12 8 12 40 0 60 -7 12 -69 15 -93 5z"/>
<path d="M3538 3813 c7 -3 16 -2 19 1 4 3 -2 6 -13 5 -11 0 -14 -3 -6 -6z"/>
<path d="M3417 3731 c-25 -9 -57 -61 -57 -93 0 -39 62 -69 146 -71 53 -2 67 2
86 20 18 19 20 27 12 50 -12 35 -63 69 -117 78 -23 4 -44 11 -47 15 -3 4 -13
4 -23 1z"/>
<path d="M4390 3703 c-54 -17 -60 -25 -60 -80 0 -50 2 -55 33 -73 17 -10 38
-24 45 -30 7 -6 48 -12 92 -13 100 -2 115 9 99 68 -6 22 -20 52 -30 67 -34 48
-125 79 -179 61z m96 -28 c19 -14 19 -14 -1 -16 -11 -2 -42 -3 -68 -4 -30 0
-52 -6 -57 -15 -6 -8 -10 -10 -10 -5 0 45 93 73 136 40z"/>
<path d="M3177 3629 c7 -7 15 -10 18 -7 3 3 -2 9 -12 12 -14 6 -15 5 -6 -5z"/>
<path d="M4965 3603 c10 -41 24 -51 40 -29 18 24 3 56 -26 56 -18 0 -20 -4
-14 -27z"/>
<path d="M3330 3555 c14 -8 30 -14 35 -14 6 0 -1 6 -15 14 -14 8 -29 14 -35
14 -5 0 1 -6 15 -14z"/>
<path d="M4393 3459 c-32 -12 -63 -67 -63 -110 0 -34 4 -39 45 -58 70 -33 184
-25 199 14 2 6 -4 30 -14 52 l-18 41 64 4 c67 4 97 19 77 39 -6 6 -58 13 -115
15 -56 2 -114 6 -128 8 -14 2 -35 0 -47 -5z m17 -109 c8 -5 11 -10 5 -11 -5 0
1 -5 15 -9 24 -8 24 -8 -6 -9 -31 -1 -60 19 -47 32 9 9 15 9 33 -3z"/>
<path d="M4850 3340 c-13 -9 -13 -11 0 -20 20 -13 57 -13 65 0 3 6 -5 10 -19
10 -13 0 -26 4 -28 10 -2 6 -8 6 -18 0z"/>
<path d="M5312 3710 c0 -19 2 -27 5 -17 2 9 2 25 0 35 -3 9 -5 1 -5 -18z"/>
<path d="M5336 3285 c-9 -26 -7 -32 5 -12 6 10 9 21 6 23 -2 3 -7 -2 -11 -11z"/>
<path d="M6653 3313 c9 -3 15 -8 13 -12 -3 -4 9 -5 25 -3 39 6 30 14 -18 17
-21 1 -30 0 -20 -2z"/>
<path d="M6614 3288 c-3 -4 2 -8 10 -8 8 0 17 4 20 8 3 5 -2 9 -10 9 -8 0 -17
-4 -20 -9z"/>
<path d="M6058 3223 c6 -2 18 -2 25 0 6 3 1 5 -13 5 -14 0 -19 -2 -12 -5z"/>
<path d="M7677 2958 c-7 -4 -23 -8 -37 -9 -24 -2 -24 -2 -2 -6 12 -2 22 -11
22 -19 0 -8 8 -14 18 -14 14 0 15 2 2 10 -11 7 0 10 38 10 32 0 52 -4 52 -11
0 -6 -9 -9 -20 -6 -24 6 -27 -8 -3 -17 10 -4 22 -1 28 7 5 7 16 12 23 10 19
-7 14 8 -10 29 -15 12 -25 15 -32 8 -13 -13 -26 -13 -26 1 0 5 5 7 10 4 6 -3
10 -2 10 3 0 11 -56 11 -73 0z m43 -8 c0 -5 -5 -10 -11 -10 -5 0 -7 5 -4 10 3
6 8 10 11 10 2 0 4 -4 4 -10z"/>
<path d="M7609 2926 c-2 -2 -22 -7 -43 -10 -49 -8 -54 -12 -26 -21 12 -4 27
-2 33 4 6 6 26 11 45 11 19 0 31 4 27 10 -6 10 -28 14 -36 6z"/>
<path d="M7608 2893 c7 -3 16 -2 19 1 4 3 -2 6 -13 5 -11 0 -14 -3 -6 -6z"/>
<path d="M7685 2880 c11 -5 27 -9 35 -9 13 -1 13 0 0 9 -8 5 -24 9 -35 9 l-20
0 20 -9z"/>
<path d="M7610 2869 c0 -10 64 -18 73 -9 5 4 -10 9 -32 12 -23 2 -41 1 -41 -3z"/>
<path d="M7595 2840 c3 -5 13 -10 21 -10 8 0 12 5 9 10 -3 6 -13 10 -21 10 -8
0 -12 -4 -9 -10z"/>
<path d="M7275 2800 c3 -5 8 -10 11 -10 2 0 4 5 4 10 0 6 -5 10 -11 10 -5 0
-7 -4 -4 -10z"/>
<path d="M7357 2779 c3 -11 10 -19 17 -19 6 0 4 -5 -4 -11 -12 -9 -12 -10 3
-5 10 3 26 6 35 7 11 0 6 6 -13 15 -30 15 -30 15 23 11 28 -2 52 0 52 4 0 10
1 10 -66 14 -46 2 -51 0 -47 -16z"/>
<path d="M3334 2781 c3 -4 17 -6 31 -4 13 3 33 2 42 -2 31 -14 42 -13 36 1 -3
10 -22 14 -60 14 -30 0 -52 -4 -49 -9z"/>
<path d="M7198 2783 c6 -2 18 -2 25 0 6 3 1 5 -13 5 -14 0 -19 -2 -12 -5z"/>
<path d="M7298 2773 c7 -3 16 -2 19 1 4 3 -2 6 -13 5 -11 0 -14 -3 -6 -6z"/>
<path d="M3368 2753 c7 -3 16 -2 19 1 4 3 -2 6 -13 5 -11 0 -14 -3 -6 -6z"/>
<path d="M7078 2753 c7 -3 16 -2 19 1 4 3 -2 6 -13 5 -11 0 -14 -3 -6 -6z"/>
<path d="M7291 2746 c12 -10 59 -15 59 -6 0 5 -14 10 -32 10 -17 0 -29 -2 -27
-4z"/>
<path d="M7108 2733 c7 -3 16 -2 19 1 4 3 -2 6 -13 5 -11 0 -14 -3 -6 -6z"/>
<path d="M3250 2720 c0 -12 27 -12 55 0 16 7 13 9 -17 9 -21 1 -38 -3 -38 -9z"/>
<path d="M7256 2717 c10 -5 24 -5 36 0 17 7 14 9 -16 9 -27 0 -32 -2 -20 -9z"/>
<path d="M3328 2698 c4 -4 21 -3 37 1 30 9 30 9 -7 8 -20 -1 -34 -5 -30 -9z"/>
<path d="M7140 2706 c0 -8 71 -12 76 -4 3 4 -13 8 -35 8 -23 0 -41 -2 -41 -4z"/>
<path d="M3410 2680 c-13 -8 -13 -10 2 -10 9 0 20 5 23 10 8 13 -5 13 -25 0z"/>
<path d="M7115 2680 c7 -12 42 -13 49 -2 2 4 -9 9 -25 10 -19 2 -28 -2 -24 -8z"/>
<path d="M3495 2660 c-3 -5 -1 -10 4 -10 6 0 11 5 11 10 0 6 -2 10 -4 10 -3 0
-8 -4 -11 -10z"/>
<path d="M6428 2663 c7 -3 16 -2 19 1 4 3 -2 6 -13 5 -11 0 -14 -3 -6 -6z"/>
<path d="M6648 2663 c12 -2 32 -2 45 0 12 2 2 4 -23 4 -25 0 -35 -2 -22 -4z"/>
<path d="M7001 2666 c11 -9 69 -15 64 -6 -3 6 -20 10 -37 10 -17 0 -29 -2 -27
-4z"/>
<path d="M6940 2640 c8 -5 24 -9 35 -9 l20 0 -20 9 c-11 5 -27 9 -35 9 -13 1
-13 0 0 -9z"/>
<path d="M3593 2633 c9 -2 23 -2 30 0 6 3 -1 5 -18 5 -16 0 -22 -2 -12 -5z"/>
<path d="M4388 2633 c6 -2 18 -2 25 0 6 3 1 5 -13 5 -14 0 -19 -2 -12 -5z"/>
<path d="M6148 2633 c7 -3 16 -2 19 1 4 3 -2 6 -13 5 -11 0 -14 -3 -6 -6z"/>
<path d="M6821 2625 c8 -7 78 -9 85 -2 4 4 -14 7 -41 7 -27 0 -46 -2 -44 -5z"/>
<path d="M5933 2613 c9 -2 25 -2 35 0 9 3 1 5 -18 5 -19 0 -27 -2 -17 -5z"/>
<path d="M3810 2600 c-23 -7 -23 -8 -3 -9 12 -1 25 4 28 9 3 6 5 10 3 9 -2 -1
-14 -5 -28 -9z"/>
<path d="M5788 2603 c7 -3 16 -2 19 1 4 3 -2 6 -13 5 -11 0 -14 -3 -6 -6z"/>
<path d="M6714 2602 c7 -12 96 -15 96 -4 0 5 -23 10 -50 11 -28 0 -49 -3 -46
-7z"/>
<path d="M5088 2593 c84 -2 219 -2 300 0 81 1 12 3 -153 3 -165 0 -231 -2
-147 -3z"/>
<path d="M5548 2593 c7 -3 16 -2 19 1 4 3 -2 6 -13 5 -11 0 -14 -3 -6 -6z"/>
<path d="M3978 2583 c7 -3 16 -2 19 1 4 3 -2 6 -13 5 -11 0 -14 -3 -6 -6z"/>
<path d="M6611 2586 c11 -9 69 -15 64 -6 -3 6 -20 10 -37 10 -17 0 -29 -2 -27
-4z"/>
<path d="M4047 2558 c-7 -5 -1 -8 13 -8 14 0 31 4 39 9 10 7 6 9 -13 8 -15 -1
-33 -5 -39 -9z"/>
<path d="M6533 2553 c9 -2 23 -2 30 0 6 3 -1 5 -18 5 -16 0 -22 -2 -12 -5z"/>
<path d="M6328 2543 c7 -3 16 -2 19 1 4 3 -2 6 -13 5 -11 0 -14 -3 -6 -6z"/>
<path d="M6390 2539 c0 -5 9 -9 20 -9 11 0 20 2 20 4 0 2 -9 6 -20 9 -11 3
-20 1 -20 -4z"/>
<path d="M6230 2520 l-35 -7 38 -2 c20 0 37 4 37 9 0 6 -1 9 -2 9 -2 -1 -19
-5 -38 -9z"/>
<path d="M6308 2523 c7 -3 16 -2 19 1 4 3 -2 6 -13 5 -11 0 -14 -3 -6 -6z"/>
<path d="M6128 2503 c7 -3 16 -2 19 1 4 3 -2 6 -13 5 -11 0 -14 -3 -6 -6z"/>
<path d="M4528 2493 c7 -3 16 -2 19 1 4 3 -2 6 -13 5 -11 0 -14 -3 -6 -6z"/>
<path d="M5973 2493 c15 -2 39 -2 55 0 15 2 2 4 -28 4 -30 0 -43 -2 -27 -4z"/>
<path d="M5828 2483 c7 -3 16 -2 19 1 4 3 -2 6 -13 5 -11 0 -14 -3 -6 -6z"/>
<path d="M5868 2483 c7 -3 16 -2 19 1 4 3 -2 6 -13 5 -11 0 -14 -3 -6 -6z"/>
<path d="M4843 2473 c26 -2 67 -2 90 0 23 2 2 3 -48 3 -49 0 -68 -1 -42 -3z"/>
<path d="M5578 2473 c34 -2 90 -2 125 0 34 2 6 3 -63 3 -69 0 -97 -1 -62 -3z"/>
</g>
</svg>
